<?xml version="1.0" encoding="utf-8"?>
<!-- Generator: Adobe Illustrator 27.5.0, SVG Export Plug-In . SVG Version: 6.00 Build 0)  -->
<svg version="1.1" id="katman_1" xmlns="http://www.w3.org/2000/svg" xmlns:xlink="http://www.w3.org/1999/xlink" x="0px" y="0px"
	 viewBox="0 0 363.85 257.19" style="enable-background:new 0 0 363.85 257.19;" xml:space="preserve">
<style type="text/css">
	.st0{fill:#FFFFFF;}
</style>
<g>
	<circle cx="60.16" cy="131.88" r="38.82"/>
	<path class="st0" d="M72.39,130.01c-0.22-0.11-0.44-0.21-0.67-0.3c-0.39-7.27-4.37-11.43-11.04-11.47c-0.03,0-0.06,0-0.09,0
		c-3.99,0-7.31,1.7-9.35,4.8l3.67,2.52c1.53-2.31,3.92-2.81,5.68-2.81c0.02,0,0.04,0,0.06,0c2.2,0.01,3.85,0.65,4.93,1.9
		c0.78,0.91,1.3,2.16,1.56,3.74c-1.95-0.33-4.05-0.43-6.3-0.3c-6.34,0.37-10.42,4.06-10.14,9.2c0.14,2.61,1.44,4.85,3.66,6.31
		c1.88,1.24,4.29,1.84,6.8,1.71c3.32-0.18,5.92-1.45,7.73-3.76c1.38-1.76,2.25-4.03,2.64-6.9c1.58,0.95,2.75,2.21,3.4,3.72
		c1.1,2.56,1.16,6.78-2.27,10.22c-3.01,3.01-6.63,4.31-12.11,4.35c-6.07-0.04-10.66-1.99-13.65-5.79c-2.8-3.55-4.24-8.69-4.29-15.26
		c0.05-6.57,1.5-11.7,4.29-15.26c2.99-3.8,7.58-5.74,13.65-5.79c6.12,0.05,10.79,2,13.89,5.82c1.52,1.87,2.67,4.22,3.42,6.96
		l4.3-1.15c-0.92-3.38-2.36-6.28-4.32-8.7c-3.97-4.89-9.79-7.39-17.27-7.45h-0.03c-7.47,0.05-13.22,2.57-17.08,7.47
		c-3.44,4.37-5.21,10.44-5.27,18.06l0,0.02l0,0.02c0.06,7.62,1.83,13.69,5.27,18.06c3.86,4.91,9.61,7.42,17.08,7.47h0.03
		c6.64-0.05,11.33-1.79,15.19-5.64c5.05-5.04,4.9-11.36,3.23-15.24C77.78,133.77,75.5,131.51,72.39,130.01z M60.92,140.8
		c-2.78,0.16-5.67-1.09-5.81-3.76c-0.11-1.98,1.41-4.19,5.98-4.45c0.52-0.03,1.04-0.04,1.54-0.04c1.66,0,3.21,0.16,4.62,0.47
		C66.73,139.58,63.64,140.65,60.92,140.8z"/>
</g>
<g>
	<g>
		<path d="M104,115.54h14.89v38.77h7.47v-38.77h14.89v-7H104V115.54z"/>
		<path d="M163.38,119.52c-2.5,0-4.6,0.52-6.27,1.53c-1.67,1.03-2.95,2.41-3.87,4.15v-16.66h-7.08v45.77h7.08v-19.8
			c0-1.4,0.17-2.56,0.49-3.51c0.32-0.95,0.83-1.77,1.52-2.52c0.77-0.93,1.67-1.59,2.67-2.07c1.01-0.45,2.18-0.69,3.57-0.69
			c1.86,0,3.32,0.54,4.36,1.64c1.05,1.1,1.56,2.6,1.56,4.52v22.43h7.08V131.3c0-3.53-0.9-6.37-2.74-8.52
			C169.95,120.6,167.17,119.52,163.38,119.52z"/>
		<path d="M227.66,121.7c-2.25-1.44-5.09-2.15-8.51-2.15c-3.04,0-5.73,0.75-8.13,2.26c-2.37,1.51-4.26,3.55-5.58,6.16
			c-1.35,2.6-2.01,5.53-2.01,8.8v1.18c0,3.49,0.66,6.52,1.99,9.08c1.33,2.56,3.17,4.56,5.56,5.98c2.37,1.42,5.11,2.13,8.19,2.13
			c3.72,0,6.82-0.77,9.28-2.28c2.46-1.53,4.26-3.66,5.39-6.41l-6.12-2.6c-0.77,1.79-1.84,3.08-3.19,3.85
			c-1.35,0.78-3.1,1.18-5.26,1.18c-2.78,0-4.94-0.97-6.52-2.91c-1.5-1.85-2.29-4.39-2.37-7.62h23.98v-2.82
			c0-2.93-0.56-5.6-1.65-8.05C231.6,125.08,229.91,123.12,227.66,121.7z M210.55,133.26c0.32-2.17,1.09-3.92,2.29-5.21
			c1.65-1.77,3.66-2.65,6.31-2.65c2.63,0,4.64,0.71,5.97,2.13c1.35,1.42,2.1,3.32,2.27,5.73H210.55z"/>
		<path d="M296.56,124.69c-1.09-1.57-2.48-2.82-4.21-3.77c-1.73-0.95-3.81-1.4-6.24-1.4c-2.65,0-4.98,0.67-7.06,2.02
			c-2.05,1.36-3.66,3.29-4.81,5.81c-1.16,2.52-1.73,5.62-1.73,9.28v1.31c0,3.62,0.58,6.69,1.73,9.26c1.15,2.54,2.76,4.5,4.81,5.86
			c2.05,1.36,4.41,2.02,7.06,2.02c2.42,0,4.51-0.47,6.24-1.4c1.73-0.95,3.14-2.2,4.21-3.77v4.37h7.02v-45.74h-7.02V124.69z
			 M296.68,140.38c0,1.31-0.17,2.39-0.51,3.27c-0.34,0.88-0.92,1.66-1.69,2.35c-1.09,0.97-2.16,1.66-3.21,2.13
			c-1.07,0.45-2.18,0.69-3.34,0.69c-1.65,0-3.1-0.37-4.36-1.08c-1.26-0.71-2.23-1.89-2.93-3.51c-0.68-1.61-1.05-3.7-1.05-6.29v-1.31
			c0-2.56,0.34-4.65,1.05-6.24c0.69-1.59,1.67-2.76,2.93-3.51c1.26-0.73,2.72-1.12,4.36-1.12c1.18,0,2.29,0.22,3.34,0.65
			c1.07,0.43,2.14,1.16,3.21,2.15c0.79,0.65,1.35,1.42,1.69,2.32c0.34,0.88,0.51,2,0.51,3.29V140.38z"/>
		<path d="M334.74,139.09c-0.83-1.31-2.05-2.32-3.61-3.04c-1.56-0.71-3.4-1.25-5.52-1.59l-3.64-0.52c-1.99-0.34-3.51-0.86-4.56-1.53
			c-1.05-0.67-1.56-1.64-1.56-2.91c0-1.27,0.64-2.26,1.95-3.01c1.3-0.73,2.84-1.12,4.49-1.12c1.65,0,3.06,0.32,4.21,0.99
			c1.18,0.65,2.05,1.68,2.67,3.08l5.65-2.76c-0.92-2.3-2.38-4.07-4.39-5.3c-2.01-1.23-4.71-1.83-8.08-1.83
			c-2.42,0-4.62,0.41-6.59,1.25c-1.97,0.82-3.55,1.98-4.75,3.42c-1.2,1.46-1.8,3.21-1.8,5.27c0,2.84,0.94,5.1,2.8,6.8
			c1.86,1.7,4.21,2.8,7.08,3.27l3.57,0.52c1.99,0.3,3.57,0.75,4.71,1.33c1.16,0.58,1.73,1.59,1.73,3.04c0,1.53-0.62,2.69-1.86,3.51
			c-1.24,0.8-2.93,1.21-5.09,1.21c-1.95,0-3.55-0.47-4.81-1.4c-1.26-0.95-2.14-2.2-2.67-3.77l-6.44,2.35
			c0.77,2.63,2.31,4.74,4.62,6.35c2.29,1.61,5.45,2.41,9.5,2.41c2.74,0,5.11-0.47,7.14-1.44c2.03-0.97,3.64-2.26,4.77-3.9
			c1.15-1.64,1.73-3.62,1.73-5.66C336,142.06,335.57,140.38,334.74,139.09z"/>
		<path d="M191.34,121.76c-1.43,0.97-2.5,2.28-3.25,3.98v-5.42h-6.76v34.01h6.76v-18.25c0-1.57,0.15-2.86,0.45-3.85
			c0.3-1.01,0.77-1.92,1.43-2.76c0.77-1.01,1.67-1.77,2.67-2.28c1.01-0.52,2.07-0.77,3.25-0.77h4.21l0.9-6.09h-4.49
			C194.5,120.32,192.77,120.79,191.34,121.76z"/>
		<path d="M265.31,139.18c0.02-0.37,0.02-0.71,0.02-1.08V133c0-4.18-1.18-7.45-3.51-9.82c-2.33-2.35-5.5-3.53-9.5-3.53
			c-3.59,0-6.52,0.8-8.77,2.35c-2.25,1.57-3.74,3.51-4.49,5.81l5.71,2.02c0.47-1.44,1.33-2.56,2.52-3.36
			c1.22-0.8,2.72-1.21,4.75-1.21c2.03,0,3.66,0.56,4.83,1.66c1.2,1.12,1.8,2.93,1.8,5.47v2.8c-2.1-0.65-4.47-0.97-7.15-0.97
			c-2.65,0-4.94,0.43-6.89,1.27c-1.95,0.84-3.47,2.04-4.51,3.59c-1.07,1.55-1.58,3.4-1.58,5.53c0,2,0.43,3.81,1.26,5.4
			c0.83,1.59,2.14,2.86,3.89,3.79c1.75,0.95,3.96,1.4,6.59,1.4c3.04,0,5.67-0.73,7.89-2.22c2.14-1.42,3.81-3.36,5.07-5.81
			c0.64,2.11,0.98,4.52,1.03,7.25h5.97c0-4.18-0.66-7.79-2.01-10.83C267.51,141.91,266.53,140.43,265.31,139.18z M256.9,147.01
			c-1.22,1.81-3.17,2.71-5.84,2.71c-1.99,0-3.51-0.5-4.51-1.46c-1.03-0.99-1.52-2.2-1.52-3.64c0-1.44,0.56-2.69,1.65-3.77
			c1.11-1.08,2.8-1.59,5.09-1.59c2.87,0,5.18,0.54,6.93,1.59C258.57,143.38,257.97,145.42,256.9,147.01z"/>
	</g>
</g>
</svg>
